<?xml version="1.0" encoding="iso-8859-1"?>
<!-- Uploaded to: SVG Repo, www.svgrepo.com, Generator: SVG Repo Mixer Tools -->
<svg height="800px" width="800px" version="1.1" id="Layer_1" xmlns="http://www.w3.org/2000/svg" xmlns:xlink="http://www.w3.org/1999/xlink" 
	 viewBox="0 0 512.005 512.005" xml:space="preserve">
<path style="fill:#AA1921;" d="M8.819,231.599C-14.717,181.371-1.009,26.7,174.092,29.29
	c191.27,2.826,390.771,287.915,325.159,392.257c-66.756,106.142-173.498,61.935-259.047-38.982
	C182.194,314.127,66.403,354.465,8.819,231.599z"/>
<path style="fill:#F05B56;" d="M38.909,234.498C16.965,189.394,15.866,63.158,156.381,49.961
	c172.214-16.175,392.005,276.36,326.067,366.243c-62.198,84.77-164.001,32.467-241.353-58.789
	C188.624,295.524,84.456,328.137,38.909,234.498z"/>
<circle style="fill:#EBEACC;" cx="378.213" cy="346.779" r="44.207"/>
<g>
	<circle style="fill:#AA1921;" cx="378.213" cy="346.773" r="31.789"/>
	<path style="fill:#AA1921;" d="M222.392,103.222c2.59,5.399,0.32,11.88-5.085,14.47L88.801,179.358
		c-5.405,2.585-11.88,0.314-14.465-5.085l0,0c-2.596-5.405-0.325-11.88,5.074-14.47l128.512-61.666
		C213.326,95.541,219.802,97.818,222.392,103.222L222.392,103.222z"/>
	<path style="fill:#AA1921;" d="M377.164,220.482c2.59,5.399,0.314,11.875-5.091,14.47l-128.506,61.666
		c-5.399,2.59-11.875,0.314-14.459-5.091l0,0c-2.596-5.399-0.325-11.88,5.074-14.47l128.512-61.666
		C368.099,212.806,374.58,215.077,377.164,220.482L377.164,220.482z"/>
	<path style="fill:#AA1921;" d="M312.499,144.901c2.596,5.399,0.325,11.875-5.079,14.47l-173.128,82.292
		c-5.405,2.59-11.88,0.314-14.47-5.085l0,0c-2.59-5.399-0.314-11.88,5.079-14.47l173.134-82.292
		C303.439,137.226,309.915,139.502,312.499,144.901L312.499,144.901z"/>
</g>
</svg>